<svg width="17" height="24" viewBox="0 0 17 24" fill="none" xmlns="http://www.w3.org/2000/svg">
<g clip-path="url(#clip0_616_15608)">
<path d="M0 0H17V20.4634C17 21.3695 16.3908 22.1624 15.5153 22.3959L9.75324 23.9325C9.58513 23.9773 9.41189 24 9.23791 24H2C0.89543 24 0 23.1046 0 22V20.5714V0Z" fill="url(#paint0_radial_616_15608)"/>
<path d="M2.26971 4.39702V3.63636H5.85352V4.39702H4.51758V8H3.60565V4.39702H2.26971ZM10.0044 5.81818C10.0044 6.29403 9.91424 6.69886 9.73384 7.03267C9.55487 7.36648 9.31055 7.62145 9.00089 7.79759C8.69265 7.9723 8.34606 8.05966 7.96112 8.05966C7.57333 8.05966 7.22532 7.97159 6.91708 7.79545C6.60884 7.61932 6.36523 7.36435 6.18626 7.03054C6.00728 6.69673 5.91779 6.29261 5.91779 5.81818C5.91779 5.34233 6.00728 4.9375 6.18626 4.60369C6.36523 4.26989 6.60884 4.01562 6.91708 3.84091C7.22532 3.66477 7.57333 3.5767 7.96112 3.5767C8.34606 3.5767 8.69265 3.66477 9.00089 3.84091C9.31055 4.01562 9.55487 4.26989 9.73384 4.60369C9.91424 4.9375 10.0044 5.34233 10.0044 5.81818ZM9.06907 5.81818C9.06907 5.50994 9.0229 5.25 8.93058 5.03835C8.83967 4.8267 8.71112 4.66619 8.54492 4.55682C8.37873 4.44744 8.18413 4.39276 7.96112 4.39276C7.7381 4.39276 7.5435 4.44744 7.37731 4.55682C7.21112 4.66619 7.08185 4.8267 6.98952 5.03835C6.89862 5.25 6.85316 5.50994 6.85316 5.81818C6.85316 6.12642 6.89862 6.38636 6.98952 6.59801C7.08185 6.80966 7.21112 6.97017 7.37731 7.07955C7.5435 7.18892 7.7381 7.24361 7.96112 7.24361C8.18413 7.24361 8.37873 7.18892 8.54492 7.07955C8.71112 6.97017 8.83967 6.80966 8.93058 6.59801C9.0229 6.38636 9.06907 6.12642 9.06907 5.81818ZM10.4379 8V3.63636H12.1594C12.4904 3.63636 12.7724 3.69957 13.0053 3.82599C13.2383 3.95099 13.4158 4.125 13.538 4.34801C13.6616 4.5696 13.7234 4.82528 13.7234 5.11506C13.7234 5.40483 13.6609 5.66051 13.5359 5.8821C13.4109 6.10369 13.2298 6.27628 12.9925 6.39986C12.7567 6.52344 12.4712 6.58523 12.136 6.58523H11.0387V5.84588H11.9869C12.1644 5.84588 12.3107 5.81534 12.4258 5.75426C12.5423 5.69176 12.6289 5.60582 12.6857 5.49645C12.744 5.38565 12.7731 5.25852 12.7731 5.11506C12.7731 4.97017 12.744 4.84375 12.6857 4.7358C12.6289 4.62642 12.5423 4.5419 12.4258 4.48224C12.3093 4.42116 12.1616 4.39062 11.9826 4.39062H11.3604V8H10.4379Z" fill="#FDFCFD"/>
<path d="M4.81729 19V17.483L8.00053 14.696C8.23917 14.4801 8.44229 14.2827 8.60991 14.1037C8.77752 13.9219 8.90536 13.7401 8.99343 13.5582C9.0815 13.3736 9.12553 13.1733 9.12553 12.9574C9.12553 12.7159 9.07298 12.5099 8.96786 12.3395C8.86275 12.1662 8.71786 12.0327 8.5332 11.9389C8.34854 11.8452 8.1369 11.7983 7.89826 11.7983C7.65678 11.7983 7.44513 11.848 7.26332 11.9474C7.0815 12.044 6.93945 12.1847 6.83718 12.3693C6.73775 12.554 6.68803 12.7784 6.68803 13.0426H4.68945C4.68945 12.4489 4.82298 11.9361 5.09002 11.5043C5.35707 11.0724 5.73207 10.7401 6.21502 10.5071C6.70082 10.2713 7.26474 10.1534 7.90678 10.1534C8.56871 10.1534 9.144 10.2642 9.63264 10.4858C10.1213 10.7074 10.4991 11.017 10.7662 11.4148C11.036 11.8097 11.171 12.2685 11.171 12.7912C11.171 13.1236 11.1042 13.4531 10.9707 13.7798C10.8372 14.1065 10.5971 14.4673 10.2505 14.8622C9.90678 15.2571 9.41815 15.7301 8.78462 16.2812L7.74059 17.2443V17.2997H11.2775V19H4.81729Z" fill="#FDFCFD"/>
</g>
<defs>
<radialGradient id="paint0_radial_616_15608" cx="0" cy="0" r="1" gradientUnits="userSpaceOnUse" gradientTransform="translate(8.5) rotate(90) scale(23.5102 17)">
<stop stop-color="#B1060F"/>
<stop offset="1" stop-color="#D11030"/>
</radialGradient>
<clipPath id="clip0_616_15608">
<rect width="17" height="24" fill="white"/>
</clipPath>
</defs>
</svg>
