<svg width="66" height="66" viewBox="0 0 66 66" fill="none" xmlns="http://www.w3.org/2000/svg">
<path d="M6.96627 38.6993C3.56492 24.129 12.6192 9.56002 27.1895 6.15867C41.7599 2.75732 56.3289 11.8116 59.7302 26.3819C63.1316 40.9523 54.0773 55.5213 39.5069 58.9226C24.9366 62.324 10.3676 53.2697 6.96627 38.6993Z" fill="url(#paint0_linear_616_12633)"/>
<path d="M60.4238 32.5245C60.3973 32.3825 60.3794 32.2391 60.3701 32.0949C60.3701 31.7728 60.3164 31.3433 60.2842 30.8064C60.2842 30.5165 60.2842 30.2051 60.2198 29.8615C60.1554 29.5179 60.1017 29.1421 60.048 28.7877C59.9214 27.8445 59.7276 26.9115 59.4682 25.9959C58.839 23.4686 57.825 21.053 56.4616 18.8339C53.2568 13.468 48.2801 9.3886 42.3898 7.29903C36.4994 5.20947 30.0645 5.24073 24.1947 7.38743C22.9958 7.81418 21.8295 8.32736 20.7049 8.92292C19.5565 9.55959 18.4549 10.2773 17.4085 11.0705C16.3414 11.8674 15.3264 12.7318 14.3697 13.6583C13.4275 14.6355 12.5488 15.6721 11.7389 16.7615C10.0779 19.0037 8.78729 21.4979 7.9163 24.149C7.02711 26.8826 6.56001 29.7359 6.53113 32.6104C6.56167 35.4838 7.02504 38.3363 7.90559 41.0717C8.78244 43.7224 10.0765 46.2162 11.7389 48.4592C12.546 49.5543 13.4249 50.5945 14.3697 51.5732C15.3264 52.4997 16.3414 53.364 17.4085 54.161C18.4555 54.948 19.5531 55.6654 20.6942 56.3085C21.8255 56.8977 22.995 57.4107 24.1947 57.844C30.0656 59.978 36.4961 60.0028 42.3834 57.9144C48.2706 55.8259 53.2479 51.7542 56.4616 46.3976C57.8231 44.1775 58.8371 41.7622 59.4682 39.2355C59.7276 38.3199 59.9214 37.3869 60.048 36.4437C60.1017 36.0357 60.1876 35.6599 60.2198 35.3163C60.252 34.9726 60.2198 34.6505 60.2842 34.3713C60.2842 33.8237 60.3486 33.405 60.3701 33.0828C60.379 32.9351 60.3969 32.7881 60.4238 32.6426C60.4356 32.7891 60.4356 32.9363 60.4238 33.0828C60.4238 33.405 60.4238 33.8345 60.4238 34.3713C60.4238 34.6613 60.4238 34.9834 60.4238 35.327C60.4238 35.6706 60.3272 36.0572 60.2735 36.4652C60.1675 37.4182 59.9917 38.362 59.7473 39.2892C59.1399 41.8489 58.144 44.3004 56.7945 46.5587C53.5843 52.0413 48.554 56.2254 42.5784 58.3833C36.6028 60.5413 30.0598 60.5366 24.0873 58.3702C22.8609 57.9344 21.6662 57.4142 20.5117 56.8132C19.3463 56.1762 18.2269 55.4586 17.1615 54.6656C16.0649 53.8567 15.0245 52.9742 14.0475 52.0242C13.0793 51.0328 12.1822 49.9743 11.3631 48.8565C9.66168 46.5777 8.33832 44.0397 7.44384 41.3401C5.56852 35.7375 5.56852 29.6765 7.44384 24.0739C8.34055 21.3752 9.66373 18.8376 11.3631 16.5575C12.1877 15.444 13.0844 14.3859 14.0475 13.3898C15.0272 12.4462 16.0674 11.5674 17.1615 10.7591C18.2269 9.96612 19.3463 9.24853 20.5117 8.61153C21.6681 8.01155 22.8625 7.48786 24.0873 7.04382C28.6851 5.38918 33.6413 4.99253 38.4437 5.89488C42.2423 6.61554 45.8438 8.13749 49.0081 10.3593C52.1724 12.5812 54.8268 15.4519 56.7945 18.7802C58.1476 21.0366 59.1436 23.4887 59.7473 26.0496C59.9906 26.9734 60.1665 27.9136 60.2735 28.8629C60.2735 29.2817 60.3916 29.6575 60.4238 30.0118C60.456 30.3662 60.4238 30.6776 60.4238 30.9567C60.4238 31.5044 60.4238 31.9339 60.4238 32.2453C60.4285 32.3383 60.4285 32.4315 60.4238 32.5245Z" fill="url(#paint1_linear_616_12633)"/>
<path d="M65.0087 44.6466L64.3214 29.8178C64.2166 26.1154 62.686 22.5965 60.0491 19.9956C57.4121 17.3947 53.8726 15.9126 50.1691 15.8587H16.5063C12.8027 15.9151 9.26343 17.3977 6.62531 19.9978C3.98718 22.5979 2.4534 26.1153 2.34326 29.8178L1.65606 44.6466C1.65606 44.6466 0.990307 54.6434 9.99926 54.6434C9.99926 54.6434 14.1655 55.7172 17.3331 51.0248L23.0027 43.4439L33.3324 43.2721L43.6728 43.4439L49.3423 51.0248C52.5099 55.6742 56.6762 54.6434 56.6762 54.6434C65.7388 54.6434 65.0087 44.6466 65.0087 44.6466Z" fill="url(#paint2_linear_616_12633)"/>
<path d="M14.7669 24.0847V26.5866C14.7661 26.7251 14.8 26.8616 14.8657 26.9836C14.9314 27.1055 15.0267 27.209 15.1427 27.2846L17.2259 28.8201L19.3734 27.2416C19.4708 27.1601 19.5491 27.0583 19.6029 26.9433C19.6567 26.8282 19.6846 26.7029 19.6848 26.5759V24.074C19.6848 23.849 19.5954 23.6332 19.4363 23.4742C19.2772 23.3151 19.0615 23.2257 18.8365 23.2257H15.6152C15.5029 23.2257 15.3917 23.248 15.2881 23.2913C15.1844 23.3346 15.0904 23.398 15.0115 23.4779C14.9326 23.5579 14.8704 23.6526 14.8284 23.7568C14.7864 23.861 14.7655 23.9724 14.7669 24.0847Z" fill="white"/>
<path d="M19.6955 37.1949V34.7038C19.6962 34.5638 19.6623 34.4258 19.5967 34.3022C19.5311 34.1785 19.4359 34.073 19.3197 33.9951L17.2259 32.4596L15.0783 34.0488C14.981 34.1303 14.9026 34.2321 14.8488 34.3471C14.795 34.4621 14.7671 34.5875 14.7669 34.7145V37.2057C14.7655 37.318 14.7864 37.4294 14.8284 37.5336C14.8704 37.6377 14.9326 37.7325 15.0115 37.8125C15.0904 37.8924 15.1844 37.9558 15.2881 37.9991C15.3917 38.0424 15.5029 38.0647 15.6152 38.0647H18.8365C18.9507 38.0662 19.0639 38.0446 19.1695 38.0013C19.2751 37.958 19.3709 37.8938 19.4511 37.8126C19.5313 37.7314 19.5943 37.6348 19.6363 37.5287C19.6783 37.4225 19.6984 37.309 19.6955 37.1949Z" fill="white"/>
<path d="M10.3214 33.2762H12.8233C12.9618 33.277 13.0983 33.243 13.2203 33.1773C13.3422 33.1117 13.4457 33.0164 13.5213 32.9003L15.0567 30.8172L13.4676 28.6697C13.3882 28.5726 13.2883 28.4943 13.175 28.4404C13.0618 28.3866 12.938 28.3585 12.8126 28.3583H10.3107C10.0857 28.3583 9.86994 28.4476 9.71086 28.6067C9.55177 28.7658 9.4624 28.9816 9.4624 29.2066V32.4279C9.46239 32.5402 9.48467 32.6514 9.52797 32.755C9.57127 32.8586 9.63475 32.9526 9.71466 33.0315C9.79457 33.1105 9.88933 33.1727 9.99349 33.2147C10.0976 33.2567 10.2091 33.2776 10.3214 33.2762Z" fill="white"/>
<path d="M23.7222 28.3041H21.231C21.091 28.3034 20.9531 28.3374 20.8294 28.4029C20.7058 28.4685 20.6003 28.5637 20.5223 28.6799L18.9868 30.7738L20.576 32.9213C20.6554 33.0184 20.7553 33.0967 20.8685 33.1505C20.9818 33.2044 21.1056 33.2324 21.231 33.2327H23.7329C23.8447 33.2341 23.9557 33.2132 24.0592 33.1711C24.1628 33.1289 24.2569 33.0665 24.336 32.9875C24.415 32.9084 24.4774 32.8143 24.5196 32.7107C24.5617 32.6072 24.5826 32.4962 24.5812 32.3844V29.1631C24.5826 29.0499 24.5614 28.9375 24.5187 28.8327C24.4761 28.7278 24.4129 28.6325 24.3328 28.5525C24.2528 28.4724 24.1575 28.4092 24.0526 28.3665C23.9477 28.3239 23.8354 28.3026 23.7222 28.3041Z" fill="white"/>
<path d="M46.9696 24.0847V26.5866C46.9687 26.7251 47.0027 26.8616 47.0684 26.9836C47.134 27.1055 47.2293 27.209 47.3454 27.2846L49.4285 28.8201L51.576 27.2416C51.6734 27.1601 51.7517 27.0583 51.8055 26.9433C51.8593 26.8282 51.8873 26.7029 51.8874 26.5759V24.074C51.8874 23.849 51.7981 23.6332 51.639 23.4742C51.4799 23.3151 51.2641 23.2257 51.0392 23.2257H47.8178C47.7055 23.2257 47.5943 23.248 47.4907 23.2913C47.3871 23.3346 47.2931 23.398 47.2142 23.4779C47.1353 23.5579 47.073 23.6526 47.031 23.7568C46.989 23.861 46.9681 23.9724 46.9696 24.0847Z" fill="white"/>
<path d="M51.8982 37.1949V34.7038C51.8989 34.5638 51.865 34.4258 51.7994 34.3022C51.7338 34.1785 51.6387 34.073 51.5224 33.9951L49.4285 32.4596L47.281 34.0488C47.1819 34.1288 47.1023 34.2303 47.0484 34.3457C46.9944 34.461 46.9675 34.5872 46.9696 34.7145V37.2057C46.9682 37.318 46.9891 37.4294 47.0311 37.5336C47.0731 37.6377 47.1353 37.7325 47.2143 37.8125C47.2932 37.8924 47.3871 37.9558 47.4908 37.9991C47.5944 38.0424 47.7056 38.0647 47.8179 38.0647H51.0392C51.1533 38.0662 51.2666 38.0446 51.3722 38.0013C51.4778 37.958 51.5736 37.8938 51.6538 37.8126C51.734 37.7314 51.797 37.6348 51.839 37.5287C51.881 37.4225 51.9011 37.309 51.8982 37.1949Z" fill="white"/>
<path d="M42.5241 33.2762H45.0152C45.1552 33.2768 45.2931 33.2429 45.4168 33.1773C45.5404 33.1117 45.6459 33.0166 45.7239 32.9003L47.2594 30.8172L45.6702 28.6697C45.5909 28.5726 45.491 28.4943 45.3777 28.4404C45.2644 28.3866 45.1406 28.3585 45.0152 28.3583H42.5133C42.2884 28.3583 42.0726 28.4476 41.9135 28.6067C41.7544 28.7658 41.665 28.9816 41.665 29.2066V32.4279C41.665 32.5402 41.6873 32.6514 41.7306 32.755C41.7739 32.8586 41.8374 32.9526 41.9173 33.0315C41.9972 33.1105 42.092 33.1727 42.1962 33.2147C42.3003 33.2567 42.4118 33.2776 42.5241 33.2762Z" fill="white"/>
<path d="M55.9248 28.3041H53.4336C53.2937 28.3034 53.1557 28.3374 53.0321 28.4029C52.9084 28.4685 52.8029 28.5637 52.7249 28.6799L51.1895 30.7738L52.7786 32.9213C52.858 33.0184 52.9579 33.0967 53.0712 33.1505C53.1844 33.2044 53.3082 33.2324 53.4336 33.2327H55.9355C56.1605 33.2327 56.3763 33.1433 56.5353 32.9842C56.6944 32.8252 56.7838 32.6094 56.7838 32.3844V29.1631C56.7852 29.0499 56.764 28.9375 56.7213 28.8327C56.6787 28.7278 56.6155 28.6325 56.5354 28.5525C56.4554 28.4724 56.3601 28.4092 56.2552 28.3665C56.1503 28.3239 56.038 28.3026 55.9248 28.3041Z" fill="white"/>
<defs>
<linearGradient id="paint0_linear_616_12633" x1="59.7302" y1="26.3819" x2="6.96627" y2="38.6993" gradientUnits="userSpaceOnUse">
<stop stop-color="#FF1F44"/>
<stop offset="1"/>
</linearGradient>
<linearGradient id="paint1_linear_616_12633" x1="33.2377" y1="5.42303" x2="33.2377" y2="59.9984" gradientUnits="userSpaceOnUse">
<stop stop-color="#FF1F44"/>
<stop offset="1"/>
</linearGradient>
<linearGradient id="paint2_linear_616_12633" x1="33.3339" y1="15.8587" x2="33.3339" y2="54.7492" gradientUnits="userSpaceOnUse">
<stop stop-color="#FF1F44"/>
<stop offset="1" stop-color="#FBC8D0"/>
</linearGradient>
</defs>
</svg>
