<svg width="17" height="24" viewBox="0 0 17 24" fill="none" xmlns="http://www.w3.org/2000/svg">
<g clip-path="url(#clip0_616_3625)">
<path d="M0 0H17V20.4634C17 21.3695 16.3908 22.1624 15.5153 22.3959L9.75324 23.9325C9.58513 23.9773 9.41189 24 9.23791 24H2C0.89543 24 0 23.1046 0 22V20.5714V0Z" fill="url(#paint0_radial_616_3625)"/>
<path d="M2.26971 4.39702V3.63636H5.85352V4.39702H4.51758V8H3.60565V4.39702H2.26971ZM10.0044 5.81818C10.0044 6.29403 9.91424 6.69886 9.73384 7.03267C9.55487 7.36648 9.31055 7.62145 9.00089 7.79759C8.69265 7.9723 8.34606 8.05966 7.96112 8.05966C7.57333 8.05966 7.22532 7.97159 6.91708 7.79545C6.60884 7.61932 6.36523 7.36435 6.18626 7.03054C6.00728 6.69673 5.91779 6.29261 5.91779 5.81818C5.91779 5.34233 6.00728 4.9375 6.18626 4.60369C6.36523 4.26989 6.60884 4.01562 6.91708 3.84091C7.22532 3.66477 7.57333 3.5767 7.96112 3.5767C8.34606 3.5767 8.69265 3.66477 9.00089 3.84091C9.31055 4.01562 9.55487 4.26989 9.73384 4.60369C9.91424 4.9375 10.0044 5.34233 10.0044 5.81818ZM9.06907 5.81818C9.06907 5.50994 9.0229 5.25 8.93058 5.03835C8.83967 4.8267 8.71112 4.66619 8.54492 4.55682C8.37873 4.44744 8.18413 4.39276 7.96112 4.39276C7.7381 4.39276 7.5435 4.44744 7.37731 4.55682C7.21112 4.66619 7.08185 4.8267 6.98952 5.03835C6.89862 5.25 6.85316 5.50994 6.85316 5.81818C6.85316 6.12642 6.89862 6.38636 6.98952 6.59801C7.08185 6.80966 7.21112 6.97017 7.37731 7.07955C7.5435 7.18892 7.7381 7.24361 7.96112 7.24361C8.18413 7.24361 8.37873 7.18892 8.54492 7.07955C8.71112 6.97017 8.83967 6.80966 8.93058 6.59801C9.0229 6.38636 9.06907 6.12642 9.06907 5.81818ZM10.4379 8V3.63636H12.1594C12.4904 3.63636 12.7724 3.69957 13.0053 3.82599C13.2383 3.95099 13.4158 4.125 13.538 4.34801C13.6616 4.5696 13.7234 4.82528 13.7234 5.11506C13.7234 5.40483 13.6609 5.66051 13.5359 5.8821C13.4109 6.10369 13.2298 6.27628 12.9925 6.39986C12.7567 6.52344 12.4712 6.58523 12.136 6.58523H11.0387V5.84588H11.9869C12.1644 5.84588 12.3107 5.81534 12.4258 5.75426C12.5423 5.69176 12.6289 5.60582 12.6857 5.49645C12.744 5.38565 12.7731 5.25852 12.7731 5.11506C12.7731 4.97017 12.744 4.84375 12.6857 4.7358C12.6289 4.62642 12.5423 4.5419 12.4258 4.48224C12.3093 4.42116 12.1616 4.39062 11.9826 4.39062H11.3604V8H10.4379Z" fill="#FDFCFD"/>
<path d="M8.46112 19.1193C7.79634 19.1193 7.20685 19.0057 6.69265 18.7784C6.18129 18.5483 5.77788 18.2315 5.48242 17.8281C5.18697 17.4247 5.0364 16.9602 5.03072 16.4347H7.15288C7.1614 16.625 7.22248 16.794 7.33612 16.9418C7.44975 17.0866 7.60458 17.2003 7.8006 17.2827C7.99663 17.3651 8.21964 17.4062 8.46964 17.4062C8.71964 17.4062 8.93981 17.3622 9.13015 17.2741C9.32333 17.1832 9.4739 17.0597 9.58185 16.9034C9.68981 16.7443 9.74237 16.5625 9.73952 16.358C9.74237 16.1534 9.68413 15.9716 9.56481 15.8125C9.44549 15.6534 9.27646 15.5298 9.05771 15.4418C8.8418 15.3537 8.58612 15.3097 8.29066 15.3097H7.44265V13.8097H8.29066C8.54918 13.8097 8.77646 13.767 8.97248 13.6818C9.17134 13.5966 9.32617 13.4773 9.43697 13.3239C9.54776 13.1676 9.60174 12.9886 9.5989 12.7869C9.60174 12.5909 9.55487 12.419 9.45827 12.2713C9.36452 12.1207 9.23242 12.0043 9.06197 11.9219C8.89435 11.8395 8.69975 11.7983 8.47816 11.7983C8.24521 11.7983 8.03356 11.8395 7.84322 11.9219C7.65572 12.0043 7.50657 12.1207 7.39577 12.2713C7.28498 12.4219 7.22674 12.5966 7.22106 12.7955H5.20543C5.21112 12.2756 5.356 11.8182 5.64009 11.4233C5.92418 11.0256 6.31055 10.7145 6.79918 10.4901C7.29066 10.2656 7.85032 10.1534 8.47816 10.1534C9.10316 10.1534 9.65288 10.2628 10.1273 10.4815C10.6017 10.7003 10.9711 10.9986 11.2353 11.3764C11.4995 11.7514 11.6316 12.1761 11.6316 12.6506C11.6344 13.142 11.4739 13.5469 11.15 13.8651C10.829 14.1832 10.4157 14.3793 9.90998 14.4531V14.5213C10.5861 14.6009 11.0961 14.8196 11.4398 15.1776C11.7864 15.5355 11.9583 15.983 11.9554 16.5199C11.9554 17.0256 11.8063 17.4744 11.508 17.8665C11.2125 18.2557 10.8006 18.5625 10.2722 18.7869C9.74663 19.0085 9.14293 19.1193 8.46112 19.1193Z" fill="#FDFCFD"/>
</g>
<defs>
<radialGradient id="paint0_radial_616_3625" cx="0" cy="0" r="1" gradientUnits="userSpaceOnUse" gradientTransform="translate(8.5) rotate(90) scale(23.5102 17)">
<stop stop-color="#B1060F"/>
<stop offset="1" stop-color="#D11030"/>
</radialGradient>
<clipPath id="clip0_616_3625">
<rect width="17" height="24" fill="white"/>
</clipPath>
</defs>
</svg>
