<svg width="17" height="24" viewBox="0 0 17 24" fill="none" xmlns="http://www.w3.org/2000/svg">
<g clip-path="url(#clip0_389_25934)">
<path d="M0 0H17V24L0 21V0Z" fill="#D22F26"/>
<path d="M2.26971 4.39702V3.63636H5.85352V4.39702H4.51758V8H3.60565V4.39702H2.26971ZM10.0044 5.81818C10.0044 6.29403 9.91424 6.69886 9.73384 7.03267C9.55487 7.36648 9.31055 7.62145 9.00089 7.79759C8.69265 7.9723 8.34606 8.05966 7.96112 8.05966C7.57333 8.05966 7.22532 7.97159 6.91708 7.79545C6.60884 7.61932 6.36523 7.36435 6.18626 7.03054C6.00728 6.69673 5.91779 6.29261 5.91779 5.81818C5.91779 5.34233 6.00728 4.9375 6.18626 4.60369C6.36523 4.26989 6.60884 4.01562 6.91708 3.84091C7.22532 3.66477 7.57333 3.5767 7.96112 3.5767C8.34606 3.5767 8.69265 3.66477 9.00089 3.84091C9.31055 4.01562 9.55487 4.26989 9.73384 4.60369C9.91424 4.9375 10.0044 5.34233 10.0044 5.81818ZM9.06907 5.81818C9.06907 5.50994 9.0229 5.25 8.93058 5.03835C8.83967 4.8267 8.71112 4.66619 8.54492 4.55682C8.37873 4.44744 8.18413 4.39276 7.96112 4.39276C7.7381 4.39276 7.5435 4.44744 7.37731 4.55682C7.21112 4.66619 7.08185 4.8267 6.98952 5.03835C6.89862 5.25 6.85316 5.50994 6.85316 5.81818C6.85316 6.12642 6.89862 6.38636 6.98952 6.59801C7.08185 6.80966 7.21112 6.97017 7.37731 7.07955C7.5435 7.18892 7.7381 7.24361 7.96112 7.24361C8.18413 7.24361 8.37873 7.18892 8.54492 7.07955C8.71112 6.97017 8.83967 6.80966 8.93058 6.59801C9.0229 6.38636 9.06907 6.12642 9.06907 5.81818ZM10.4379 8V3.63636H12.1594C12.4904 3.63636 12.7724 3.69957 13.0053 3.82599C13.2383 3.95099 13.4158 4.125 13.538 4.34801C13.6616 4.5696 13.7234 4.82528 13.7234 5.11506C13.7234 5.40483 13.6609 5.66051 13.5359 5.8821C13.4109 6.10369 13.2298 6.27628 12.9925 6.39986C12.7567 6.52344 12.4712 6.58523 12.136 6.58523H11.0387V5.84588H11.9869C12.1644 5.84588 12.3107 5.81534 12.4258 5.75426C12.5423 5.69176 12.6289 5.60582 12.6857 5.49645C12.744 5.38565 12.7731 5.25852 12.7731 5.11506C12.7731 4.97017 12.744 4.84375 12.6857 4.7358C12.6289 4.62642 12.5423 4.5419 12.4258 4.48224C12.3093 4.42116 12.1616 4.39062 11.9826 4.39062H11.3604V8H10.4379Z" fill="#FDFCFD"/>
<path d="M8.4818 17.0994C7.9515 17.0994 7.4792 17.0083 7.0649 16.826C6.65297 16.6413 6.32744 16.388 6.08833 16.0661C5.85159 15.7417 5.72967 15.3677 5.72257 14.9439H7.27086C7.28033 15.1214 7.33833 15.2777 7.44487 15.4126C7.55377 15.5452 7.69818 15.6482 7.87811 15.7216C8.05803 15.795 8.26045 15.8317 8.48535 15.8317C8.71973 15.8317 8.92688 15.7902 9.1068 15.7074C9.28672 15.6245 9.42759 15.5097 9.52939 15.3629C9.63119 15.2161 9.68208 15.0469 9.68208 14.8551C9.68208 14.661 9.62763 14.4893 9.51873 14.3402C9.4122 14.1887 9.25832 14.0703 9.05708 13.9851C8.85822 13.8999 8.62148 13.8572 8.34686 13.8572H7.66859V12.728H8.34686C8.57886 12.728 8.78365 12.6877 8.9612 12.6072C9.14113 12.5268 9.28081 12.4155 9.38024 12.2734C9.47967 12.129 9.52939 11.9609 9.52939 11.7692C9.52939 11.5869 9.48559 11.4271 9.39799 11.2898C9.31277 11.1501 9.19203 11.0412 9.03578 10.9631C8.8819 10.8849 8.70197 10.8459 8.496 10.8459C8.28767 10.8459 8.09709 10.8838 7.92427 10.9595C7.75145 11.0329 7.61296 11.1383 7.50879 11.2756C7.40462 11.4129 7.34899 11.5739 7.34189 11.7585H5.86816C5.87527 11.3395 5.99482 10.9702 6.22683 10.6506C6.45884 10.331 6.77134 10.0812 7.16433 9.90128C7.55969 9.71899 8.00595 9.62784 8.50311 9.62784C9.005 9.62784 9.44416 9.71899 9.82058 9.90128C10.197 10.0836 10.4894 10.3298 10.6977 10.6399C10.9084 10.9477 11.0126 11.2933 11.0102 11.6768C11.0126 12.084 10.8859 12.4238 10.6302 12.696C10.3769 12.9683 10.0467 13.1411 9.63947 13.2145V13.2713C10.1745 13.34 10.5817 13.5258 10.8611 13.8288C11.1428 14.1295 11.2825 14.5059 11.2801 14.9581C11.2825 15.3724 11.1629 15.7405 10.9214 16.0625C10.6823 16.3845 10.3521 16.6378 9.93066 16.8224C9.50926 17.0071 9.02631 17.0994 8.4818 17.0994Z" fill="#FDFCFD"/>
</g>
<defs>
<clipPath id="clip0_389_25934">
<rect width="17" height="24" fill="white"/>
</clipPath>
</defs>
</svg>
