<svg width="14" height="20" viewBox="0 0 14 20" fill="none" xmlns="http://www.w3.org/2000/svg">
<path d="M0.25 1.942C0.25 1.176 0.771 0.25 1.75 0.25H12.25C13.229 0.25 13.75 1.176 13.75 1.942V17.952C13.75 19.304 12.281 20.26 11.064 19.47L7.12 16.91C7.08499 16.8859 7.04349 16.873 7.001 16.873C6.95851 16.873 6.91701 16.8859 6.882 16.91L2.936 19.47C1.719 20.26 0.25 19.305 0.25 17.952V1.942ZM9.953 5.939C10.0661 5.77761 10.1111 5.5782 10.0783 5.38389C10.0455 5.18958 9.93753 5.01599 9.77777 4.90063C9.618 4.78528 9.41926 4.73743 9.22451 4.76744C9.02975 4.79745 8.85463 4.9029 8.737 5.061L6.27 8.477L5.264 7.329C5.13075 7.18824 4.94818 7.10453 4.75456 7.09542C4.56095 7.08631 4.37132 7.15252 4.22545 7.28016C4.07958 7.4078 3.98879 7.58695 3.97211 7.78006C3.95544 7.97318 4.01417 8.16524 4.136 8.316L5.514 9.892C5.61803 10.0106 5.74743 10.1042 5.8926 10.1659C6.03777 10.2276 6.19498 10.2558 6.35254 10.2484C6.5101 10.241 6.66397 10.1982 6.80273 10.1231C6.94148 10.0481 7.06154 9.9428 7.154 9.815L9.953 5.939Z" fill="#EDEDED"/>
</svg>
