<svg width="32" height="32" viewBox="0 0 32 32" fill="none" xmlns="http://www.w3.org/2000/svg">
<path d="M28 26.6667C28 27.0203 27.8595 27.3594 27.6095 27.6095C27.3594 27.8595 27.0203 28 26.6667 28H5.33333C4.97971 28 4.64057 27.8595 4.39052 27.6095C4.14048 27.3594 4 27.0203 4 26.6667V12.6533C3.99986 12.4501 4.04616 12.2496 4.13535 12.0671C4.22455 11.8845 4.35429 11.7247 4.51467 11.6L15.1813 3.304C15.4154 3.12192 15.7035 3.02307 16 3.02307C16.2965 3.02307 16.5846 3.12192 16.8187 3.304L27.4853 11.6C27.6457 11.7247 27.7754 11.8845 27.8646 12.0671C27.9538 12.2496 28.0001 12.4501 28 12.6533V26.6667ZM25.3333 25.3333V13.304L16 6.04533L6.66667 13.304V25.3333H25.3333ZM9.33333 20H22.6667V22.6667H9.33333V20Z" fill="#EDEDED"/>
</svg>
