<svg width="24" height="24" viewBox="0 0 24 24" fill="none" xmlns="http://www.w3.org/2000/svg">
<path d="M15.0015 2C13.7757 2 12.7867 2 12.0092 2.10884C11.2022 2.22047 10.5226 2.46233 9.98276 3.0214C9.51291 3.50977 9.27439 4.10977 9.14975 4.81488C9.0287 5.50047 9.00539 6.3386 9.00001 7.34512C8.99906 7.53015 9.069 7.708 9.19445 7.83954C9.31989 7.97107 9.49057 8.04553 9.66893 8.04651C9.84729 8.0475 10.0187 7.97494 10.1455 7.8448C10.2723 7.71466 10.3441 7.53759 10.345 7.35256C10.3504 6.33581 10.3755 5.61488 10.4723 5.06698C10.5665 4.54047 10.7162 4.23442 10.9341 4.00837C11.1825 3.7507 11.5313 3.58326 12.1895 3.49116C12.8665 3.39721 13.764 3.39535 15.0508 3.39535H15.9474C17.2351 3.39535 18.1326 3.39721 18.8096 3.49116C19.4678 3.58326 19.8157 3.75163 20.065 4.00837C20.3125 4.26605 20.4739 4.62698 20.5626 5.3107C20.6541 6.01209 20.655 6.94419 20.655 8.27907V15.7209C20.655 17.0558 20.6541 17.987 20.5626 18.6902C20.4739 19.373 20.3125 19.734 20.0641 19.9916C19.8157 20.2493 19.4678 20.4167 18.8096 20.5088C18.1326 20.6028 17.2351 20.6047 15.9474 20.6047H15.0508C13.764 20.6047 12.8665 20.6028 12.1886 20.5088C11.5313 20.4167 11.1825 20.2484 10.9341 19.9916C10.7162 19.7647 10.5665 19.4595 10.4723 18.933C10.3755 18.3851 10.3504 17.6642 10.345 16.6474C10.3446 16.5558 10.3267 16.4652 10.2925 16.3807C10.2582 16.2963 10.2083 16.2196 10.1455 16.1552C10.0827 16.0908 10.0083 16.0398 9.92656 16.0052C9.84479 15.9706 9.75724 15.953 9.66893 15.9535C9.58061 15.954 9.49326 15.9725 9.41185 16.008C9.33043 16.0435 9.25656 16.0953 9.19445 16.1605C9.13233 16.2256 9.08319 16.3028 9.04983 16.3876C9.01647 16.4724 8.99954 16.5633 9.00001 16.6549C9.00539 17.6614 9.0287 18.4995 9.14975 19.1851C9.27529 19.8902 9.51291 20.4902 9.98366 20.9786C10.5226 21.5386 11.2031 21.7786 12.0101 21.8921C12.7867 22 13.7757 22 15.0015 22H15.9968C17.2234 22 18.2115 22 18.989 21.8921C19.796 21.7786 20.4757 21.5386 21.0155 20.9786C21.5553 20.4186 21.7866 19.7135 21.896 18.8763C22 18.0698 22 17.0437 22 15.7721V8.22791C22 6.95628 22 5.93023 21.896 5.12372C21.7875 4.28651 21.5553 3.5814 21.0155 3.0214C20.4757 2.4614 19.796 2.2214 18.989 2.10884C18.2115 2 17.2225 2 15.9968 2H15.0015Z" fill="#B2B2B2"/>
<path d="M14.3276 11.4001C14.5059 11.4001 14.677 11.4633 14.8031 11.5758C14.9292 11.6883 15 11.8409 15 12C15 12.1591 14.9292 12.3117 14.8031 12.4242C14.677 12.5367 14.5059 12.5999 14.3276 12.5999H4.49013L6.2482 13.9438C6.38373 14.0473 6.46761 14.1947 6.4814 14.3534C6.49519 14.5121 6.43775 14.6692 6.32171 14.7901C6.20568 14.9111 6.04056 14.9859 5.86268 14.9982C5.6848 15.0105 5.50873 14.9593 5.3732 14.8557L2.23539 12.456C2.16157 12.3996 2.10231 12.3297 2.06168 12.251C2.02104 12.1723 2 12.0867 2 12C2 11.9133 2.02104 11.8277 2.06168 11.749C2.10231 11.6703 2.16157 11.6004 2.23539 11.544L5.3732 9.14428C5.44031 9.09301 5.51807 9.05405 5.60206 9.0296C5.68604 9.00515 5.7746 8.9957 5.86268 9.00179C5.95076 9.00789 6.03663 9.0294 6.11539 9.0651C6.19415 9.1008 6.26426 9.14999 6.32171 9.20987C6.37917 9.26975 6.42284 9.33913 6.45024 9.41407C6.47764 9.48901 6.48823 9.56803 6.4814 9.64661C6.47457 9.7252 6.45047 9.80182 6.41045 9.8721C6.37044 9.94237 6.31531 10.0049 6.2482 10.0562L4.49102 11.4001H14.3276Z" fill="#B2B2B2"/>
</svg>
