<svg width="32" height="32" viewBox="0 0 32 32" fill="none" xmlns="http://www.w3.org/2000/svg">
<path d="M16.0001 2.66699C8.63608 2.66699 2.66675 8.63633 2.66675 16.0003C2.66675 23.3643 8.63608 29.3337 16.0001 29.3337H26.6667V26.667H24.0014C25.0122 25.9089 25.91 25.0111 26.6681 24.0003C28.402 21.694 29.3377 18.8857 29.3334 16.0003C29.3334 15.4634 29.3023 14.9345 29.2401 14.4137L26.5921 14.727C26.6419 15.1448 26.6667 15.5692 26.6667 16.0003C26.6685 17.5139 26.3474 19.0104 25.7248 20.39C25.1021 21.7695 24.1923 23.0004 23.0561 24.0003C21.676 25.2168 20.0047 26.0556 18.2046 26.4353C16.4046 26.8151 14.5369 26.7228 12.783 26.1674C11.0291 25.6121 9.44871 24.6125 8.19527 23.2659C6.94182 21.9193 6.05796 20.2714 5.62956 18.4823C5.20115 16.6932 5.24275 14.8237 5.75033 13.0554C6.2579 11.2871 7.21419 9.68017 8.5263 8.39066C9.83841 7.10115 11.4617 6.17292 13.2386 5.69614C15.0154 5.21936 16.8853 5.21023 18.6667 5.66966L19.3307 3.08699C18.2641 2.81233 17.1481 2.66699 16.0001 2.66699ZM13.3334 10.667C13.3334 11.3742 13.6144 12.0525 14.1145 12.5526C14.6146 13.0527 15.2928 13.3337 16.0001 13.3337C16.7073 13.3337 17.3856 13.0527 17.8857 12.5526C18.3858 12.0525 18.6667 11.3742 18.6667 10.667C18.6667 9.95975 18.3858 9.28147 17.8857 8.78137C17.3856 8.28128 16.7073 8.00033 16.0001 8.00033C15.2928 8.00033 14.6146 8.28128 14.1145 8.78137C13.6144 9.28147 13.3334 9.95975 13.3334 10.667ZM8.00008 16.0003C8.00008 16.7076 8.28103 17.3858 8.78113 17.8859C9.28123 18.386 9.9595 18.667 10.6667 18.667C11.374 18.667 12.0523 18.386 12.5524 17.8859C13.0525 17.3858 13.3334 16.7076 13.3334 16.0003C13.3334 15.2931 13.0525 14.6148 12.5524 14.1147C12.0523 13.6146 11.374 13.3337 10.6667 13.3337C9.9595 13.3337 9.28123 13.6146 8.78113 14.1147C8.28103 14.6148 8.00008 15.2931 8.00008 16.0003ZM18.6667 16.0003C18.6667 16.7076 18.9477 17.3858 19.4478 17.8859C19.9479 18.386 20.6262 18.667 21.3334 18.667C22.0407 18.667 22.7189 18.386 23.219 17.8859C23.7191 17.3858 24.0001 16.7076 24.0001 16.0003C24.0001 15.2931 23.7191 14.6148 23.219 14.1147C22.7189 13.6146 22.0407 13.3337 21.3334 13.3337C20.6262 13.3337 19.9479 13.6146 19.4478 14.1147C18.9477 14.6148 18.6667 15.2931 18.6667 16.0003ZM13.3334 21.3337C13.3334 22.0409 13.6144 22.7192 14.1145 23.2193C14.6146 23.7194 15.2928 24.0003 16.0001 24.0003C16.7073 24.0003 17.3856 23.7194 17.8857 23.2193C18.3858 22.7192 18.6667 22.0409 18.6667 21.3337C18.6667 20.6264 18.3858 19.9481 17.8857 19.448C17.3856 18.9479 16.7073 18.667 16.0001 18.667C15.2928 18.667 14.6146 18.9479 14.1145 19.448C13.6144 19.9481 13.3334 20.6264 13.3334 21.3337Z" fill="white"/>
<path d="M21.3333 1.99984C21.3333 1.52861 21.642 0.958946 22.2221 0.958946H28.4444C29.0245 0.958946 29.3333 1.52861 29.3333 1.99984V10.8898C29.3333 11.7215 28.4627 12.3096 27.7415 11.8237L25.4044 10.2488C25.3836 10.234 25.359 10.226 25.3338 10.226C25.3087 10.226 25.2841 10.234 25.2633 10.2488L22.925 11.8237C22.2038 12.3096 21.3333 11.7221 21.3333 10.8898L21.3333 1.99984Z" fill="white"/>
</svg>
