<svg width="32" height="32" viewBox="0 0 32 32" fill="none" xmlns="http://www.w3.org/2000/svg">
<path d="M21.3333 1.99984C21.3333 1.52861 21.642 0.958946 22.2221 0.958946H28.4444C29.0245 0.958946 29.3333 1.52861 29.3333 1.99984V10.8898C29.3333 11.7215 28.4627 12.3096 27.7415 11.8237L25.4044 10.2488C25.3836 10.234 25.359 10.226 25.3338 10.226C25.3087 10.226 25.2841 10.234 25.2633 10.2488L22.925 11.8237C22.2038 12.3096 21.3333 11.7221 21.3333 10.8898L21.3333 1.99984Z" fill="white"/>
<path fill-rule="evenodd" clip-rule="evenodd" d="M18.6667 4.00033C18.3724 4.0763 18.0843 4.1775 17.8058 4.30323C17.1161 4.61449 16.5006 5.06894 16.0001 5.63638C15.4996 5.06894 14.884 4.61449 14.1944 4.30323C13.5047 3.99196 12.7567 3.831 12.0001 3.83105H4.00008C3.64646 3.83105 3.30732 3.97152 3.05727 4.22157C2.80722 4.47162 2.66675 4.81076 2.66675 5.16438V25.3337C2.66675 25.6874 2.80722 26.0265 3.05727 26.2765C3.30732 26.5266 3.64646 26.6671 4.00008 26.6671H14.6667V29.3337H17.3334V26.6671H28.0001C28.3537 26.6671 28.6928 26.5266 28.9429 26.2765C29.1929 26.0265 29.3334 25.6874 29.3334 25.3337V14.6671H26.6667V24.0004H17.3334V9.16438C17.3334 8.45714 17.6144 7.77886 18.1145 7.27876C18.2807 7.11253 18.4666 6.97051 18.6667 6.85497V4.00033ZM14.6667 9.16438V24.0004H5.33341V6.49771H12.0001C12.7073 6.49771 13.3856 6.77866 13.8857 7.27876C14.3858 7.77886 14.6667 8.45714 14.6667 9.16438Z" fill="white"/>
</svg>
