<svg width="32" height="32" viewBox="0 0 32 32" fill="none" xmlns="http://www.w3.org/2000/svg">
<path fill-rule="evenodd" clip-rule="evenodd" d="M19.1046 27.3744C18.7807 27.6096 18.429 27.8046 18.0423 27.905C16.9537 28.1918 15.7644 27.7645 14.7254 27.4776C7.7605 25.5515 3.09531 22.5355 1.75719 18.035C0.689026 14.441 1.71633 10.8412 3.97523 8.60389C6.06778 6.53151 9.17012 5.69108 12.3527 7.03777C14.4248 4.3071 17.5403 3.5097 20.4063 4.27698C23.4998 5.1045 26.2199 7.71757 27.1231 11.3546C27.3002 12.0679 27.3892 12.7941 27.3902 13.5331C27.7637 13.7215 28.114 13.951 28.4408 14.2216C30.1292 15.6256 31.031 18.0106 30.5275 20.4903C29.8855 23.6541 26.9013 25.8757 22.6331 27.4619C21.902 27.7343 21.1023 28.0714 20.3041 27.9337C19.8605 27.8563 19.4636 27.6325 19.1046 27.3744ZM4.55893 17.2304C3.77823 14.6016 4.5633 12.0947 6.04735 10.6246C7.47157 9.21341 9.58308 8.68851 11.9179 10.0309C12.7336 10.4999 13.7857 10.2216 14.2526 9.41707C15.5922 7.10661 17.6877 6.5229 19.6387 7.04494C21.6729 7.58993 23.6283 9.37404 24.2878 12.0344C24.3686 12.3538 24.4221 12.6812 24.4483 13.0168C23.9137 13.0841 23.3923 13.2296 22.9016 13.4485C21.3343 11.9469 19.2593 11.6515 17.4294 12.3141C15.3544 13.0642 13.6762 15.0032 13.2852 17.5029C12.8868 20.0629 14.1169 22.5584 16.4065 24.9578C16.1176 24.8861 15.8184 24.8 15.5163 24.7168C8.75862 22.8481 5.4476 20.2207 4.55893 17.2304ZM16.1715 17.9375C16.405 16.4316 17.3958 15.3832 18.4377 15.0046C19.4008 14.6575 20.4705 14.8397 21.2833 15.9942C21.4044 16.1662 21.5591 16.3129 21.7384 16.4258C21.9176 16.5388 22.1178 16.6156 22.3274 16.6521C22.5371 16.6885 22.752 16.6837 22.9597 16.638C23.1675 16.5922 23.3639 16.5065 23.5378 16.3857C24.7052 15.5725 25.7733 15.7619 26.5555 16.4115C27.4048 17.1172 27.968 18.4366 27.6645 19.9296C27.3362 21.5502 25.6683 23.2683 21.6014 24.7785C21.3431 24.8746 21.0863 24.9779 20.8207 25.0539C20.5974 24.8918 20.3917 24.7097 20.1815 24.5333C16.8866 21.7467 15.9162 19.571 16.1715 17.9361V17.9375Z" fill="#EDEDED"/>
</svg>
