<svg width="30" height="29" viewBox="0 0 30 29" fill="none" xmlns="http://www.w3.org/2000/svg">
<path d="M25.6174 9.83735L25.2894 10.592C25.2382 10.7149 25.1517 10.8199 25.0409 10.8937C24.9301 10.9676 24.7999 11.007 24.6667 11.007C24.5336 11.007 24.4034 10.9676 24.2926 10.8937C24.1818 10.8199 24.0953 10.7149 24.0441 10.592L23.7161 9.83735C23.1394 8.50231 22.0833 7.43191 20.7561 6.83735L19.7441 6.38535C19.6213 6.32887 19.5173 6.23838 19.4444 6.12459C19.3715 6.0108 19.3327 5.87849 19.3327 5.74335C19.3327 5.60821 19.3715 5.4759 19.4444 5.36211C19.5173 5.24832 19.6213 5.15783 19.7441 5.10135L20.7001 4.67602C22.0606 4.06452 23.1348 2.95453 23.7014 1.57468L24.0387 0.760017C24.0883 0.633823 24.1747 0.525481 24.2867 0.449117C24.3987 0.372753 24.5312 0.331909 24.6667 0.331909C24.8023 0.331909 24.9347 0.372753 25.0468 0.449117C25.1588 0.525481 25.2452 0.633823 25.2948 0.760017L25.6321 1.57335C26.1981 2.95345 27.2718 4.06393 28.6321 4.67602L29.5894 5.10268C29.7118 5.15932 29.8155 5.24981 29.8881 5.36345C29.9607 5.47709 29.9993 5.60915 29.9993 5.74402C29.9993 5.87889 29.9607 6.01094 29.8881 6.12459C29.8155 6.23823 29.7118 6.32871 29.5894 6.38535L28.5761 6.83602C27.2492 7.43117 26.1935 8.50205 25.6174 9.83735ZM14.0001 1.66668C6.63608 1.66668 0.666748 7.63602 0.666748 15C0.666748 22.364 6.63608 28.3334 14.0001 28.3334H24.6667V25.6667H22.0014C23.0122 24.9086 23.91 24.0108 24.6681 23C26.402 20.6937 27.3377 17.8854 27.3334 15C27.3334 14.4631 27.3023 13.9342 27.2401 13.4134L24.5921 13.7267C24.6419 14.1445 24.6667 14.5689 24.6667 15C24.6685 16.5136 24.3474 18.0101 23.7248 19.3897C23.1021 20.7692 22.1923 22.0001 21.0561 23C19.676 24.2165 18.0047 25.0553 16.2046 25.435C14.4046 25.8148 12.5369 25.7225 10.783 25.1671C9.02913 24.6117 7.44871 23.6122 6.19527 22.2656C4.94182 20.919 4.05796 19.2711 3.62956 17.482C3.20115 15.6929 3.24275 13.8234 3.75033 12.0551C4.2579 10.2868 5.21419 8.67986 6.5263 7.39035C7.83841 6.10084 9.46173 5.17261 11.2386 4.69583C13.0154 4.21905 14.8853 4.20993 16.6667 4.66935L17.3307 2.08668C16.2641 1.81202 15.1481 1.66668 14.0001 1.66668ZM11.3334 9.66668C11.3334 10.3739 11.6144 11.0522 12.1145 11.5523C12.6146 12.0524 13.2928 12.3334 14.0001 12.3334C14.7073 12.3334 15.3856 12.0524 15.8857 11.5523C16.3858 11.0522 16.6667 10.3739 16.6667 9.66668C16.6667 8.95944 16.3858 8.28116 15.8857 7.78107C15.3856 7.28097 14.7073 7.00002 14.0001 7.00002C13.2928 7.00002 12.6146 7.28097 12.1145 7.78107C11.6144 8.28116 11.3334 8.95944 11.3334 9.66668ZM6.00008 15C6.00008 15.7073 6.28103 16.3855 6.78113 16.8856C7.28123 17.3857 7.9595 17.6667 8.66675 17.6667C9.37399 17.6667 10.0523 17.3857 10.5524 16.8856C11.0525 16.3855 11.3334 15.7073 11.3334 15C11.3334 14.2928 11.0525 13.6145 10.5524 13.1144C10.0523 12.6143 9.37399 12.3334 8.66675 12.3334C7.9595 12.3334 7.28123 12.6143 6.78113 13.1144C6.28103 13.6145 6.00008 14.2928 6.00008 15ZM16.6667 15C16.6667 15.7073 16.9477 16.3855 17.4478 16.8856C17.9479 17.3857 18.6262 17.6667 19.3334 17.6667C20.0407 17.6667 20.7189 17.3857 21.219 16.8856C21.7191 16.3855 22.0001 15.7073 22.0001 15C22.0001 14.2928 21.7191 13.6145 21.219 13.1144C20.7189 12.6143 20.0407 12.3334 19.3334 12.3334C18.6262 12.3334 17.9479 12.6143 17.4478 13.1144C16.9477 13.6145 16.6667 14.2928 16.6667 15ZM11.3334 20.3334C11.3334 21.0406 11.6144 21.7189 12.1145 22.219C12.6146 22.7191 13.2928 23 14.0001 23C14.7073 23 15.3856 22.7191 15.8857 22.219C16.3858 21.7189 16.6667 21.0406 16.6667 20.3334C16.6667 19.6261 16.3858 18.9478 15.8857 18.4477C15.3856 17.9476 14.7073 17.6667 14.0001 17.6667C13.2928 17.6667 12.6146 17.9476 12.1145 18.4477C11.6144 18.9478 11.3334 19.6261 11.3334 20.3334Z" fill="#EDEDED"/>
</svg>
