<svg width="139" height="58" viewBox="0 0 139 58" fill="none" xmlns="http://www.w3.org/2000/svg">
<path d="M3.38288 41.8609V27.0851H0.194419V22.5746H3.38288V19.425C3.38288 17.8956 3.64211 16.7031 4.16056 15.8477C4.67901 14.9922 5.48261 14.396 6.57135 14.059C7.66009 13.722 9.07287 13.5535 10.8097 13.5535H13.4927V18.2196H11.8595C10.8226 18.2196 10.1357 18.3233 9.7987 18.5307C9.46171 18.738 9.29321 19.2176 9.29321 19.9694V22.5746H13.4927V27.0851H9.29321V41.8609H3.38288ZM20.3046 19.3861C19.3455 19.3861 18.5159 19.0491 17.816 18.3751C17.1421 17.6752 16.8051 16.8457 16.8051 15.8866C16.8051 14.9015 17.1421 14.072 17.816 13.398C18.5159 12.724 19.3455 12.387 20.3046 12.387C21.2896 12.387 22.1192 12.724 22.7932 13.398C23.4671 14.072 23.8041 14.9015 23.8041 15.8866C23.8041 16.8457 23.4671 17.6752 22.7932 18.3751C22.1192 19.0491 21.2896 19.3861 20.3046 19.3861ZM17.3105 41.8609V27.0851H13.6555V22.5746H23.2598V41.8609H17.3105ZM31.7531 41.8609C30.1718 41.8609 28.9146 41.7313 27.9814 41.4721C27.0482 41.1869 26.3742 40.6555 25.9594 39.8778C25.5706 39.0742 25.3762 37.9207 25.3762 36.4172V15.8866H31.2865V34.8618C31.2865 35.7691 31.468 36.3653 31.8309 36.6505C32.1938 36.9097 32.8678 37.0393 33.8528 37.0393H35.5248V41.8609H31.7531ZM36.0479 41.8609V22.5746H41.2195L41.9583 25.1409C42.399 24.4151 43.1248 23.7152 44.1358 23.0412C45.1467 22.3672 46.3651 22.0302 47.7908 22.0302C49.3203 22.0302 50.5386 22.3024 51.4459 22.8468C52.3791 23.3911 53.0661 24.1947 53.5067 25.2576C54.2585 24.1947 55.2047 23.3911 56.3453 22.8468C57.5118 22.3024 58.769 22.0302 60.117 22.0302C62.5796 22.0302 64.2775 22.7301 65.2107 24.1299C66.1439 25.5038 66.6106 27.4998 66.6106 30.118V41.8609H60.7002V31.5956C60.7002 30.6883 60.6484 29.8588 60.5447 29.107C60.441 28.3553 60.1818 27.7591 59.767 27.3184C59.3523 26.8518 58.6653 26.6185 57.7062 26.6185C56.5137 26.6185 55.6453 27.0462 55.101 27.9016C54.5566 28.7312 54.2844 29.9884 54.2844 31.6734V41.8609H48.3352V31.5956C48.3352 30.6883 48.2834 29.8588 48.1797 29.107C48.1019 28.3553 47.8556 27.7591 47.4409 27.3184C47.052 26.8518 46.391 26.6185 45.4578 26.6185C44.2395 26.6185 43.3451 27.0592 42.7748 27.9405C42.2305 28.8219 41.9583 30.1051 41.9583 31.79V41.8609H36.0479ZM67.1838 41.8609L77.0214 15.8866H83.7871L93.6247 41.8609H86.9367L85.3814 37.2337H75.4271L73.8718 41.8609H67.1838ZM77.0991 32.2566H83.7094L80.3654 22.3802L77.0991 32.2566ZM93.9914 41.8609V15.8866H103.984C106.24 15.8866 108.249 16.1199 110.011 16.5865C111.8 17.0531 113.2 17.8956 114.211 19.1139C115.248 20.3323 115.766 22.082 115.766 24.3632C115.766 26.6185 115.248 28.3682 114.211 29.6125C113.2 30.8309 111.8 31.6734 110.011 32.14C108.249 32.6066 106.24 32.8399 103.984 32.8399H100.135V41.8609H93.9914ZM100.135 27.7461H104.179C105.138 27.7461 105.993 27.6554 106.745 27.4739C107.523 27.2925 108.132 26.9555 108.573 26.4629C109.039 25.9704 109.273 25.2705 109.273 24.3632C109.273 23.4559 109.039 22.769 108.573 22.3024C108.132 21.8099 107.523 21.4858 106.745 21.3303C105.993 21.1488 105.138 21.0581 104.179 21.0581H100.135V27.7461ZM116.776 41.8609V15.8866H126.769C129.025 15.8866 131.034 16.1199 132.796 16.5865C134.585 17.0531 135.985 17.8956 136.996 19.1139C138.033 20.3323 138.551 22.082 138.551 24.3632C138.551 26.6185 138.033 28.3682 136.996 29.6125C135.985 30.8309 134.585 31.6734 132.796 32.14C131.034 32.6066 129.025 32.8399 126.769 32.8399H122.92V41.8609H116.776ZM122.92 27.7461H126.964C127.923 27.7461 128.778 27.6554 129.53 27.4739C130.308 27.2925 130.917 26.9555 131.358 26.4629C131.824 25.9704 132.058 25.2705 132.058 24.3632C132.058 23.4559 131.824 22.769 131.358 22.3024C130.917 21.8099 130.308 21.4858 129.53 21.3303C128.778 21.1488 127.923 21.0581 126.964 21.0581H122.92V27.7461Z" fill="#D22F26"/>
</svg>
