<svg width="32" height="32" viewBox="0 0 32 32" fill="none" xmlns="http://www.w3.org/2000/svg">
<path fill-rule="evenodd" clip-rule="evenodd" d="M16 28C22.6274 28 28 22.6274 28 16C28 9.37258 22.6274 4 16 4C9.37258 4 4 9.37258 4 16C4 22.6274 9.37258 28 16 28ZM16 28C16 28 21.3333 24 21.3333 16C21.3333 8 16 4 16 4C16 4 10.6667 8 10.6667 16C10.6667 24 16 28 16 28Z" fill="black" fill-opacity="0.15"/>
<path d="M28 16C28 22.6274 22.6274 28 16 28M28 16C28 9.37258 22.6274 4 16 4M28 16H4M16 28C9.37258 28 4 22.6274 4 16M16 28C16 28 21.3333 24 21.3333 16C21.3333 8 16 4 16 4M16 28C16 28 10.6667 24 10.6667 16C10.6667 8 16 4 16 4M4 16C4 9.37258 9.37258 4 16 4" stroke="white" stroke-width="2" stroke-linecap="round" stroke-linejoin="round"/>
</svg>
