<svg width="28" height="28" viewBox="0 0 28 28" fill="none" xmlns="http://www.w3.org/2000/svg">
<path fill-rule="evenodd" clip-rule="evenodd" d="M12.6667 22C17.8214 22 22.0001 17.8213 22.0001 12.6667C22.0001 7.51203 17.8214 3.33335 12.6667 3.33335C7.51209 3.33335 3.33341 7.51203 3.33341 12.6667C3.33341 17.8213 7.51209 22 12.6667 22ZM12.6667 24.6667C15.4851 24.6667 18.0766 23.6951 20.1244 22.0685C20.8854 21.4641 21.5714 20.7691 22.166 20C23.7339 17.9721 24.6667 15.4283 24.6667 12.6667C24.6667 6.03927 19.2942 0.666687 12.6667 0.666687C6.03933 0.666687 0.666748 6.03927 0.666748 12.6667C0.666748 19.2941 6.03933 24.6667 12.6667 24.6667Z" fill="#EDEDED"/>
<path d="M27.1014 25.5654C27.2301 25.4366 27.2318 25.2285 27.1051 25.0977L22.166 20C21.5714 20.7691 20.8854 21.4641 20.1244 22.0685L25.0977 27.0951C25.2277 27.2265 25.4397 27.2271 25.5704 27.0964L27.1014 25.5654Z" fill="#EDEDED"/>
</svg>
