<svg width="28" height="27" viewBox="0 0 28 27" fill="none" xmlns="http://www.w3.org/2000/svg">
<path d="M15.3334 24V26.6667H12.6667V24H2.00008C1.64646 24 1.30732 23.8595 1.05727 23.6095C0.807224 23.3594 0.666748 23.0203 0.666748 22.6667V1.33333C0.666748 0.979711 0.807224 0.640573 1.05727 0.390524C1.30732 0.140476 1.64646 8.01906e-09 2.00008 8.01906e-09H10.0001C10.7567 -4.14818e-05 11.5047 0.160916 12.1944 0.47218C12.884 0.783445 13.4996 1.23789 14.0001 1.80533C14.5006 1.23789 15.1161 0.783445 15.8058 0.47218C16.4954 0.160916 17.2434 -4.14818e-05 18.0001 8.01906e-09H26.0001C26.3537 8.01906e-09 26.6928 0.140476 26.9429 0.390524C27.1929 0.640573 27.3334 0.979711 27.3334 1.33333V22.6667C27.3334 23.0203 27.1929 23.3594 26.9429 23.6095C26.6928 23.8595 26.3537 24 26.0001 24H15.3334ZM24.6667 21.3333V2.66667H18.0001C17.2928 2.66667 16.6146 2.94762 16.1145 3.44771C15.6144 3.94781 15.3334 4.62609 15.3334 5.33333V21.3333H24.6667ZM12.6667 21.3333V5.33333C12.6667 4.62609 12.3858 3.94781 11.8857 3.44771C11.3856 2.94762 10.7073 2.66667 10.0001 2.66667H3.33341V21.3333H12.6667Z" fill="#EDEDED"/>
</svg>
