<svg width="17" height="24" viewBox="0 0 17 24" fill="none" xmlns="http://www.w3.org/2000/svg">
<g clip-path="url(#clip0_389_25906)">
<path d="M0 0H17V24L0 21V0Z" fill="#D22F26"/>
<path d="M2.26971 4.39702V3.63636H5.85352V4.39702H4.51758V8H3.60565V4.39702H2.26971ZM10.0044 5.81818C10.0044 6.29403 9.91424 6.69886 9.73384 7.03267C9.55487 7.36648 9.31055 7.62145 9.00089 7.79759C8.69265 7.9723 8.34606 8.05966 7.96112 8.05966C7.57333 8.05966 7.22532 7.97159 6.91708 7.79545C6.60884 7.61932 6.36523 7.36435 6.18626 7.03054C6.00728 6.69673 5.91779 6.29261 5.91779 5.81818C5.91779 5.34233 6.00728 4.9375 6.18626 4.60369C6.36523 4.26989 6.60884 4.01562 6.91708 3.84091C7.22532 3.66477 7.57333 3.5767 7.96112 3.5767C8.34606 3.5767 8.69265 3.66477 9.00089 3.84091C9.31055 4.01562 9.55487 4.26989 9.73384 4.60369C9.91424 4.9375 10.0044 5.34233 10.0044 5.81818ZM9.06907 5.81818C9.06907 5.50994 9.0229 5.25 8.93058 5.03835C8.83967 4.8267 8.71112 4.66619 8.54492 4.55682C8.37873 4.44744 8.18413 4.39276 7.96112 4.39276C7.7381 4.39276 7.5435 4.44744 7.37731 4.55682C7.21112 4.66619 7.08185 4.8267 6.98952 5.03835C6.89862 5.25 6.85316 5.50994 6.85316 5.81818C6.85316 6.12642 6.89862 6.38636 6.98952 6.59801C7.08185 6.80966 7.21112 6.97017 7.37731 7.07955C7.5435 7.18892 7.7381 7.24361 7.96112 7.24361C8.18413 7.24361 8.37873 7.18892 8.54492 7.07955C8.71112 6.97017 8.83967 6.80966 8.93058 6.59801C9.0229 6.38636 9.06907 6.12642 9.06907 5.81818ZM10.4379 8V3.63636H12.1594C12.4904 3.63636 12.7724 3.69957 13.0053 3.82599C13.2383 3.95099 13.4158 4.125 13.538 4.34801C13.6616 4.5696 13.7234 4.82528 13.7234 5.11506C13.7234 5.40483 13.6609 5.66051 13.5359 5.8821C13.4109 6.10369 13.2298 6.27628 12.9925 6.39986C12.7567 6.52344 12.4712 6.58523 12.136 6.58523H11.0387V5.84588H11.9869C12.1644 5.84588 12.3107 5.81534 12.4258 5.75426C12.5423 5.69176 12.6289 5.60582 12.6857 5.49645C12.744 5.38565 12.7731 5.25852 12.7731 5.11506C12.7731 4.97017 12.744 4.84375 12.6857 4.7358C12.6289 4.62642 12.5423 4.5419 12.4258 4.48224C12.3093 4.42116 12.1616 4.39062 11.9826 4.39062H11.3604V8H10.4379Z" fill="#FDFCFD"/>
<path d="M5.94007 17V15.892L8.52885 13.495C8.74902 13.282 8.93368 13.0902 9.08283 12.9197C9.23435 12.7493 9.34917 12.5824 9.42729 12.419C9.50542 12.2533 9.54448 12.0746 9.54448 11.8828C9.54448 11.6697 9.49595 11.4863 9.39888 11.3324C9.30182 11.1761 9.16924 11.0566 9.00115 10.9737C8.83307 10.8885 8.64249 10.8459 8.42942 10.8459C8.20688 10.8459 8.01275 10.8909 7.84703 10.9808C7.68132 11.0708 7.55347 11.1998 7.46351 11.3679C7.37355 11.536 7.32857 11.736 7.32857 11.968H5.86905C5.86905 11.4922 5.97677 11.0791 6.19221 10.7287C6.40764 10.3783 6.70949 10.1072 7.09775 9.91548C7.486 9.72372 7.93345 9.62784 8.44007 9.62784C8.96091 9.62784 9.41427 9.72017 9.80016 9.90483C10.1884 10.0871 10.4903 10.3404 10.7057 10.6648C10.9211 10.9891 11.0289 11.3608 11.0289 11.7798C11.0289 12.0545 10.9744 12.3255 10.8655 12.593C10.759 12.8606 10.5684 13.1577 10.2938 13.4844C10.0191 13.8087 9.63207 14.1982 9.13255 14.6527L8.07076 15.6932V15.7429H11.1247V17H5.94007Z" fill="#FDFCFD"/>
</g>
<defs>
<clipPath id="clip0_389_25906">
<rect width="17" height="24" fill="white"/>
</clipPath>
</defs>
</svg>
